<svg xmlns="http://www.w3.org/2000/svg" viewBox="0 0 315.9 159.1"><defs><style>  .cls-1{fill:none;stroke:#fff;stroke-linecap:round;stroke-linejoin:round;stroke-width:0.5px;}</style></defs><title>  Asset 1</title><g data-name="Layer 2"><line class="cls-1" x1="191.1" y1="94.6" x2="287.1" y2="158.8"/><line class="cls-1" x1="191.1" y1="94.6" x2="315.7" y2="79.8"/><line class="cls-1" x1="191.1" y1="94.6" x2="245" y2="56.6"/><line class="cls-1" x1="191.1" y1="94.6" x2="185.6" y2="31.7"/><line class="cls-1" x1="191.1" y1="94.6" x2="157.3" y2="105"/><line class="cls-1" x1="220.3" y1="140.1" x2="229.1" y2="120"/><line class="cls-1" x1="229.1" y1="120" x2="309.5" y2="71.8"/><line class="cls-1" x1="229.1" y1="120" x2="237.2" y2="50.4"/><line class="cls-1" x1="100" y1="105.8" x2="100.8" y2="68.6"/><line class="cls-1" x1="100" y1="105.8" x2="134" y2="70.6"/><line class="cls-1" x1="134" y1="70.6" x2="191.1" y2="94.6"/><line class="cls-1" x1="134" y1="70.6" x2="143.1" y2="95.5"/><line class="cls-1" x1="143.1" y1="95.5" x2="100" y2="105.8"/><line class="cls-1" x1="143.1" y1="95.5" x2="190.7" y2="127.8"/><line class="cls-1" x1="100.8" y1="68.6" x2="25.9" y2="63.6"/><line class="cls-1" x1="100.8" y1="68.6" x2="86.4" y2="0.3"/><line class="cls-1" x1="100.8" y1="68.6" x2="134" y2="70.6"/><line class="cls-1" x1="134" y1="70.6" x2="293.8" y2="77.7"/><line class="cls-1" x1="134" y1="70.6" x2="173.5" y2="16.6"/><line class="cls-1" x1="134" y1="70.6" x2="47.9" y2="6.3"/><line class="cls-1" x1="100" y1="105.8" x2="22.5" y2="79.5"/><line class="cls-1" x1="79.9" y1="67" x2="73.6" y2="3.2"/><line class="cls-1" x1="229.1" y1="120" x2="218.6" y2="126.2"/><line class="cls-1" x1="218.6" y1="126.2" x2="191.1" y2="94.6"/><line class="cls-1" x1="157.1" y1="105" x2="218.6" y2="126.2"/><line class="cls-1" x1="244.8" y1="110.6" x2="228.3" y2="41.3"/><line class="cls-1" x1="244.8" y1="110.6" x2="242.9" y2="151.3"/><line class="cls-1" x1="242.9" y1="151.3" x2="305.8" y2="121.6"/><line class="cls-1" x1="218.6" y1="126.2" x2="220.3" y2="140.1"/><line class="cls-1" x1="97.9" y1="58.1" x2="0.3" y2="107.2"/><line class="cls-1" x1="97.9" y1="58.1" x2="201.1" y2="47.8"/><line class="cls-1" x1="190.7" y1="127.8" x2="136.5" y2="22.8"/><line class="cls-1" x1="134" y1="70.6" x2="120.2" y2="13.8"/><polygon class="cls-1" points="162.6 129.9 180.5 124.9 181.9 135.5 162.6 129.9"/><polygon class="cls-1" points="95 119.7 104.1 122.8 98.8 128.1 95 119.7"/><polygon class="cls-1" points="211.5 124.9 209.4 148.2 217.1 142.2 211.5 124.9"/></g></svg>
