<svg xmlns="http://www.w3.org/2000/svg" viewBox="0 0 32 32"><defs><style type="text/css">path{fill: #f68691}</style></defs><path d="M30.2 7.3c0 0.1 0 0.2-0.1 0.3-0.1 0.1-0.1 0.1-0.2 0.1-0.6 0.1-1.1 0.3-1.5 0.6-0.4 0.3-0.8 1-1.2 2l-6.4 14.5c0 0.1-0.2 0.2-0.4 0.2-0.1 0-0.3-0.1-0.4-0.2l-3.6-7.6-4.2 7.6c-0.1 0.1-0.2 0.2-0.4 0.2-0.2 0-0.3-0.1-0.4-0.2l-6.3-14.5c-0.4-0.9-0.8-1.5-1.2-1.9s-1-0.6-1.8-0.7c-0.1 0-0.1 0-0.2-0.1-0.1-0.1-0.1-0.1-0.1-0.2 0-0.2 0.1-0.4 0.2-0.4 0.6 0 1.2 0 1.8 0.1 0.6 0.1 1.1 0.1 1.6 0.1 0.5 0 1.1 0 1.8-0.1 0.7 0 1.4-0.1 2-0.1 0.1 0 0.2 0.1 0.2 0.4s0 0.4-0.1 0.4c-0.6 0-1 0.2-1.3 0.4s-0.5 0.6-0.5 1c0 0.2 0.1 0.5 0.2 0.8l5.2 11.8 3-5.6-2.8-5.8c-0.5-1-0.9-1.7-1.2-2s-0.8-0.5-1.5-0.5c-0.1 0-0.1 0-0.2-0.1s-0.1-0.1-0.1-0.2c0-0.2 0.1-0.4 0.2-0.4 0.6 0 1.1 0 1.6 0.1 0.5 0.1 0.9 0.1 1.5 0.1 0.5 0 1 0 1.6-0.1 0.6 0 1.2-0.1 1.7-0.1 0.1 0 0.2 0.1 0.2 0.4s0 0.4-0.1 0.4c-1.1 0.1-1.7 0.4-1.7 1 0 0.3 0.1 0.6 0.4 1.2l1.8 3.7 1.8-3.4c0.3-0.5 0.4-0.9 0.4-1.2 0-0.8-0.6-1.2-1.7-1.2-0.1 0-0.1-0.1-0.1-0.3 0-0.1 0-0.2 0.1-0.2s0.1-0.1 0.2-0.1c0.4 0 0.9 0 1.5 0.1 0.6 0.1 1 0.1 1.4 0.1 0.3 0 0.6 0 1.2-0.1 0.6-0.1 1.2-0.1 1.6-0.1 0.1 0 0.2 0.1 0.2 0.3 0 0.3-0.1 0.4-0.3 0.4-0.7 0.1-1.2 0.3-1.6 0.5s-0.9 1-1.5 2l-2.4 4.5 3.3 6.7 4.9-11.3c0.2-0.4 0.3-0.8 0.3-1.1 0-0.8-0.6-1.3-1.7-1.3-0.1 0-0.1-0.1-0.1-0.3 0-0.2 0.1-0.4 0.2-0.4 0.4 0 0.9 0 1.5 0.1 0.5 0.1 1 0.1 1.3 0.1 0.4 0 0.8 0 1.3-0.1 0.5 0 1-0.1 1.4-0.1 0.1 0 0.2 0.1 0.2 0.3z"/></svg>
